<svg width="32" height="32" viewBox="0 0 32 32" fill="none" xmlns="http://www.w3.org/2000/svg">
<path d="M10.8528 15.2255C10.0368 15.2255 9.30676 15.0805 8.66257 14.7906C8.01839 14.5008 7.50841 14.0659 7.13263 13.4862C6.76759 12.8957 6.58507 12.1602 6.58507 11.2798V10.9416H7.92176V11.2798C7.92176 12.2139 8.19554 12.9118 8.7431 13.3734C9.29065 13.8244 9.99389 14.0498 10.8528 14.0498C11.7332 14.0498 12.4042 13.8512 12.8659 13.454C13.3276 13.0567 13.5584 12.5575 13.5584 11.9562C13.5584 11.5375 13.451 11.2047 13.2363 10.9577C13.0323 10.7108 12.7424 10.5122 12.3666 10.3619C11.9909 10.2008 11.5507 10.0612 11.0461 9.94314L10.2086 9.73378C9.5537 9.562 8.97393 9.35264 8.46932 9.1057C7.96471 8.85876 7.56746 8.53667 7.27757 8.13942C6.99843 7.73144 6.85885 7.21072 6.85885 6.57727C6.85885 5.94382 7.01453 5.39627 7.32589 4.9346C7.64798 4.47293 8.09354 4.11863 8.66257 3.87169C9.24234 3.62475 9.908 3.50129 10.6595 3.50129C11.4218 3.50129 12.1036 3.63549 12.7048 3.9039C13.3168 4.16158 13.7946 4.54809 14.1382 5.06344C14.4925 5.56805 14.6696 6.20687 14.6696 6.97989V7.65628H13.3329V6.97989C13.3329 6.43233 13.2148 5.99214 12.9786 5.65931C12.7532 5.32648 12.4364 5.07954 12.0284 4.91849C11.6312 4.75745 11.1749 4.67692 10.6595 4.67692C9.91874 4.67692 9.32286 4.84334 8.87193 5.17617C8.421 5.49826 8.19554 5.95993 8.19554 6.56117C8.19554 6.95842 8.29217 7.28051 8.48542 7.52745C8.67868 7.77438 8.95246 7.97838 9.30676 8.13942C9.66106 8.28973 10.0851 8.42394 10.579 8.54204L11.4165 8.7514C12.0714 8.89097 12.6565 9.08423 13.1719 9.33117C13.698 9.56737 14.1167 9.89483 14.428 10.3135C14.7394 10.7215 14.8951 11.2584 14.8951 11.924C14.8951 12.5897 14.7287 13.1694 14.3958 13.6633C14.063 14.1572 13.5906 14.5437 12.9786 14.8228C12.3774 15.0913 11.6688 15.2255 10.8528 15.2255ZM19.594 15V10.7001L15.5839 3.72675H17.13L20.1576 9.13791H20.3831L23.4108 3.72675H24.9568L20.9468 10.7001V15H19.594ZM6.38024 28V26.7922H7.9585V17.9346H6.38024V16.7268H10.7768C12.2584 16.7268 13.4019 17.1025 14.2071 17.8541C15.0231 18.6056 15.4311 19.7598 15.4311 21.3166V23.4102C15.4311 24.9777 15.0231 26.1372 14.2071 26.8888C13.4019 27.6296 12.2584 28 10.7768 28H6.38024ZM9.31129 26.776H10.7768C11.8719 26.776 12.6986 26.5076 13.2569 25.9708C13.8152 25.434 14.0944 24.6019 14.0944 23.4746V21.2683C14.0944 20.1195 13.8152 19.282 13.2569 18.7559C12.6986 18.2299 11.8719 17.9668 10.7768 17.9668H9.31129V26.776ZM17.5905 28V16.7268H24.5316V17.9507H18.9432V21.7192H24.0806V22.9431H18.9432V26.776H24.6121V28H17.5905Z" fill="white"/>
</svg>
