<svg width="32" height="32" viewBox="0 0 32 32" fill="none" xmlns="http://www.w3.org/2000/svg">
<path d="M11.0694 15.1065C10.2597 15.1065 9.54501 14.9616 8.92526 14.6717C8.30551 14.3818 7.8207 13.967 7.47084 13.4272C7.12098 12.8874 6.94605 12.2377 6.94605 11.478V11.0581H8.89527V11.478C8.89527 12.1077 9.09019 12.5825 9.48004 12.9024C9.86988 13.2123 10.3997 13.3672 11.0694 13.3672C11.7491 13.3672 12.2539 13.2323 12.5838 12.9624C12.9237 12.6925 13.0936 12.3476 13.0936 11.9278C13.0936 11.6379 13.0086 11.403 12.8387 11.2231C12.6788 11.0432 12.4388 10.8982 12.119 10.7883C11.8091 10.6683 11.4293 10.5583 10.9794 10.4584L10.6346 10.3834C9.91486 10.2235 9.29511 10.0236 8.77532 9.78366C8.26552 9.53376 7.87068 9.20889 7.59079 8.80905C7.3209 8.40921 7.18596 7.88942 7.18596 7.24968C7.18596 6.60994 7.3359 6.06515 7.63578 5.61533C7.94565 5.15552 8.37548 4.80566 8.92526 4.56576C9.48503 4.31586 10.1398 4.19091 10.8895 4.19091C11.6392 4.19091 12.3039 4.32085 12.8837 4.58075C13.4734 4.83065 13.9332 5.2105 14.2631 5.72029C14.603 6.22009 14.7729 6.84984 14.7729 7.60953V8.05935H12.8237V7.60953C12.8237 7.20969 12.7437 6.88982 12.5838 6.64992C12.4338 6.40002 12.2139 6.22009 11.9241 6.11014C11.6342 5.99018 11.2893 5.93021 10.8895 5.93021C10.2897 5.93021 9.84489 6.04516 9.55501 6.27507C9.27512 6.49498 9.13517 6.79986 9.13517 7.1897C9.13517 7.4496 9.20015 7.66951 9.3301 7.84944C9.47004 8.02936 9.67496 8.1793 9.94485 8.29926C10.2147 8.41921 10.5596 8.52417 10.9794 8.61413L11.3243 8.6891C12.074 8.84904 12.7237 9.05395 13.2735 9.30385C13.8333 9.55375 14.2681 9.88362 14.578 10.2935C14.8879 10.7033 15.0428 11.2281 15.0428 11.8678C15.0428 12.5076 14.8779 13.0723 14.548 13.5621C14.2281 14.0419 13.7683 14.4218 13.1686 14.7017C12.5788 14.9716 11.8791 15.1065 11.0694 15.1065ZM18.8957 14.8966V11.2831L15.3271 4.40082H17.5312L19.7503 8.89902H20.0202L22.2393 4.40082H24.4434L20.8749 11.2831V14.8966H18.8957ZM7.04545 26.8966V25.1573H8.42489V18.1401H7.04545V16.4008H11.3637C12.7731 16.4008 13.8427 16.7607 14.5724 17.4804C15.3121 18.1901 15.682 19.2497 15.682 20.6591V22.6383C15.682 24.0478 15.3121 25.1123 14.5724 25.832C13.8427 26.5417 12.7731 26.8966 11.3637 26.8966H7.04545ZM10.4041 25.0973H11.3937C12.1934 25.0973 12.7781 24.8874 13.148 24.4676C13.5178 24.0478 13.7028 23.458 13.7028 22.6983V20.5991C13.7028 19.8294 13.5178 19.2397 13.148 18.8298C12.7781 18.41 12.1934 18.2001 11.3937 18.2001H10.4041V25.0973ZM17.3315 26.8966V16.4008H24.0788V18.2001H19.3108V20.7041H23.659V22.5034H19.3108V25.0973H24.1688V26.8966H17.3315Z" fill="url(#paint0_linear_164_426)"/>
<defs>
<linearGradient id="paint0_linear_164_426" x1="15.5" y1="3.89661" x2="15.5" y2="27.8966" gradientUnits="userSpaceOnUse">
<stop stop-color="#423CE2"/>
<stop offset="0.5" stop-color="#8B32EB"/>
<stop offset="1" stop-color="#A424D5"/>
</linearGradient>
</defs>
</svg>
